# xmcd
#
# Track frame offsets:
#	150
#	18062
#	34672
#	48762
#	63792
#	75667
#	92462
#	110765
#	130372
#	143867
#
# Disc length: 2118 seconds
#
# Revision: 4
# Processed by: cddbd v1.5.1PL2 Copyright (c) Steve Scherf et al.
# Submitted via: dBpowerAMP V4.0
#
DISCID=7508440a
DTITLE=Joe Diffie - Life's So Funny
DYEAR=1995
DGENRE=Country
TTITLE0=Bigger Than The Beatles
TTITLE1=Never Mine To Lose
TTITLE2=Down In A Ditch
TTITLE3=Tears In The Rain
TTITLE4=C-O-U-N-T-R-Y
TTITLE5=She Loves Me
TTITLE6=Back To The Cave
TTITLE7=I'm Willing To Try
TTITLE8=Whole Lotta Gone
TTITLE9=Life's So Funny
EXTD=
EXTT0=
EXTT1=
EXTT2=
EXTT3=
EXTT4=
EXTT5=
EXTT6=
EXTT7=
EXTT8=
EXTT9=
PLAYORDER=
